HIERARCHY
ROOT Hips
{
  OFFSET 377.359 91.7583 291.037
  CHANNELS 6 Xposition Yposition Zposition Zrotation Xrotation Yrotation
  JOINT RightUpLeg
  {
    OFFSET -9.28642 -1.59632 -9.03395e-05
    CHANNELS 3 Zrotation Xrotation Yrotation
    JOINT RightLeg
    {
      OFFSET -0.0601623 -41.888 0.0982453
      CHANNELS 3 Zrotation Xrotation Yrotation
      JOINT RightFoot
      {
        OFFSET -0.549468 -42.1724 0.947078
        CHANNELS 3 Zrotation Xrotation Yrotation
        End Site
        {
          OFFSET 0 -7.69 17.5
        }
      }
    }
  }
  JOINT LeftUpLeg
  {
    OFFSET 9.28298 -1.59548 -0.0248362
    CHANNELS 3 Zrotation Xrotation Yrotation
    JOINT LeftLeg
    {
      OFFSET 0.0192929 -41.8873 0.00794164
      CHANNELS 3 Zrotation Xrotation Yrotation
      JOINT LeftFoot
      {
        OFFSET -0.746045 -41.1665 -0.569803
        CHANNELS 3 Zrotation Xrotation Yrotation
        End Site
        {
          OFFSET 0 -7.69 17.5
        }
      }
    }
  }
  JOINT Spine
  {
    OFFSET -0.000345586 14.3043 -0.042359
    CHANNELS 3 Zrotation Xrotation Yrotation
    JOINT Spine1
    {
      OFFSET 0.0196078 9.72339 0.000861227
      CHANNELS 3 Zrotation Xrotation Yrotation
      JOINT Spine2
      {
        OFFSET 0.0469873 10.1154 0.0385868
        CHANNELS 3 Zrotation Xrotation Yrotation
        JOINT Spine3
        {
          OFFSET 0.0321772 9.72311 0.0254006
          CHANNELS 3 Zrotation Xrotation Yrotation
          JOINT Neck
          {
            OFFSET 0.0425577 10.3879 -0.03362
            CHANNELS 3 Zrotation Xrotation Yrotation
            JOINT Head
            {
              OFFSET -0.0433974 9.45898 -0.0337556
              CHANNELS 3 Zrotation Xrotation Yrotation
              End Site
              {
                OFFSET 0 15.95 0
              }
            }
          }
          JOINT RightShoulder
          {
            OFFSET -3.17867 6.91972 0.0328625
            CHANNELS 3 Zrotation Xrotation Yrotation
            JOINT RightArm
            {
              OFFSET -12.7831 -0.0478894 -0.00678061
              CHANNELS 3 Zrotation Xrotation Yrotation
              JOINT RightForeArm
              {
                OFFSET -26.5789 -0.0730316 0.00211615
                CHANNELS 3 Zrotation Xrotation Yrotation
                JOINT RightHand
                {
                  OFFSET -26.0213 -0.0103758 0.0349874
                  CHANNELS 3 Zrotation Xrotation Yrotation
                  JOINT RightHandThumb1
                  {
                    OFFSET -2.48905 0.190105 3.12053
                    CHANNELS 3 Zrotation Xrotation Yrotation
                    JOINT RightHandThumb2
                    {
                      OFFSET -3.68274 0 0
                      CHANNELS 3 Zrotation Xrotation Yrotation
                      JOINT RightHandThumb3
                      {
                        OFFSET -2.55832 0 0
                        CHANNELS 3 Zrotation Xrotation Yrotation
                        End Site
                        {
                          OFFSET -2.194 0 0
                        }
                      }
                    }
                  }
                  JOINT RightInHandIndex
                  {
                    OFFSET -3.22368 0.508421 1.97842
                    CHANNELS 3 Zrotation Xrotation Yrotation
                    JOINT RightHandIndex1
                    {
                      OFFSET -5.21684 -0.091368 0.999158
                      CHANNELS 3 Zrotation Xrotation Yrotation
                      JOINT RightHandIndex2
                      {
                        OFFSET -3.61937 0 0
                        CHANNELS 3 Zrotation Xrotation Yrotation
                        JOINT RightHandIndex3
                        {
                          OFFSET -2.0521 0 0
                          CHANNELS 3 Zrotation Xrotation Yrotation
                          End Site
                          {
                            OFFSET -1.805 0 0
                          }
                        }
                      }
                    }
                  }
                  JOINT RightInHandMiddle
                  {
                    OFFSET -3.38211 0.517263 0.756737
                    CHANNELS 3 Zrotation Xrotation Yrotation
                    JOINT RightHandMiddle1
                    {
                      OFFSET -5.17411 -0.084 0.313895
                      CHANNELS 3 Zrotation Xrotation Yrotation
                      JOINT RightHandMiddle2
                      {
                        OFFSET -3.94947 0 0
                        CHANNELS 3 Zrotation Xrotation Yrotation
                        JOINT RightHandMiddle3
                        {
                          OFFSET -2.47579 0 0
                          CHANNELS 3 Zrotation Xrotation Yrotation
                          End Site
                          {
                            OFFSET -1.975 0 0
                          }
                        }
                      }
                    }
                  }
                  JOINT RightInHandRing
                  {
                    OFFSET -3.36516 0.537895 -0.128947
                    CHANNELS 3 Zrotation Xrotation Yrotation
                    JOINT RightHandRing1
                    {
                      OFFSET -4.63474 -0.022105 -0.478947
                      CHANNELS 3 Zrotation Xrotation Yrotation
                      JOINT RightHandRing2
                      {
                        OFFSET -3.44238 0 0
                        CHANNELS 3 Zrotation Xrotation Yrotation
                        JOINT RightHandRing3
                        {
                          OFFSET -2.3881 0 0
                          CHANNELS 3 Zrotation Xrotation Yrotation
                          End Site
                          {
                            OFFSET -1.857 0 0
                          }
                        }
                      }
                    }
                  }
                  JOINT RightInHandPinky
                  {
                    OFFSET -3.16105 0.469368 -1.20179
                    CHANNELS 3 Zrotation Xrotation Yrotation
                    JOINT RightHandPinky1
                    {
                      OFFSET -4.14105 -0.022105 -1.09053
                      CHANNELS 3 Zrotation Xrotation Yrotation
                      JOINT RightHandPinky2
                      {
                        OFFSET -2.75653 0 0
                        CHANNELS 3 Zrotation Xrotation Yrotation
                        JOINT RightHandPinky3
                        {
                          OFFSET -1.74189 0 0
                          CHANNELS 3 Zrotation Xrotation Yrotation
                          End Site
                          {
                            OFFSET -1.645 0 0
                          }
                        }
                      }
                    }
                  }
                }
              }
            }
          }
          JOINT LeftShoulder
          {
            OFFSET 3.23012 6.92 -0.00609139
            CHANNELS 3 Zrotation Xrotation Yrotation
            JOINT LeftArm
            {
              OFFSET 12.7767 -0.0153216 0.0248839
              CHANNELS 3 Zrotation Xrotation Yrotation
              JOINT LeftForeArm
              {
                OFFSET 26.5279 -0.0486976 0.0448853
                CHANNELS 3 Zrotation Xrotation Yrotation
                JOINT LeftHand
                {
                  OFFSET 26.0161 0.0261831 -0.0433709
                  CHANNELS 3 Zrotation Xrotation Yrotation
                  JOINT LeftHandThumb1
                  {
                    OFFSET 2.48905 0.190105 3.12053
                    CHANNELS 3 Zrotation Xrotation Yrotation
                    JOINT LeftHandThumb2
                    {
                      OFFSET 3.68274 0 0
                      CHANNELS 3 Zrotation Xrotation Yrotation
                      JOINT LeftHandThumb3
                      {
                        OFFSET 2.55832 0 0
                        CHANNELS 3 Zrotation Xrotation Yrotation
                        End Site
                        {
                          OFFSET 2.194 0 0
                        }
                      }
                    }
                  }
                  JOINT LeftInHandIndex
                  {
                    OFFSET 3.22368 0.508421 1.97842
                    CHANNELS 3 Zrotation Xrotation Yrotation
                    JOINT LeftHandIndex1
                    {
                      OFFSET 5.21684 -0.091368 0.999158
                      CHANNELS 3 Zrotation Xrotation Yrotation
                      JOINT LeftHandIndex2
                      {
                        OFFSET 3.61937 0 0
                        CHANNELS 3 Zrotation Xrotation Yrotation
                        JOINT LeftHandIndex3
                        {
                          OFFSET 2.0521 0 0
                          CHANNELS 3 Zrotation Xrotation Yrotation
                          End Site
                          {
                            OFFSET 1.805 0 0
                          }
                        }
                      }
                    }
                  }
                  JOINT LeftInHandMiddle
                  {
                    OFFSET 3.38211 0.517263 0.756737
                    CHANNELS 3 Zrotation Xrotation Yrotation
                    JOINT LeftHandMiddle1
                    {
                      OFFSET 5.17411 -0.084 0.313895
                      CHANNELS 3 Zrotation Xrotation Yrotation
                      JOINT LeftHandMiddle2
                      {
                        OFFSET 3.94947 0 0
                        CHANNELS 3 Zrotation Xrotation Yrotation
                        JOINT LeftHandMiddle3
                        {
                          OFFSET 2.47579 0 0
                          CHANNELS 3 Zrotation Xrotation Yrotation
                          End Site
                          {
                            OFFSET 1.975 0 0
                          }
                        }
                      }
                    }
                  }
                  JOINT LeftInHandRing
                  {
                    OFFSET 3.36516 0.537895 -0.128947
                    CHANNELS 3 Zrotation Xrotation Yrotation
                    JOINT LeftHandRing1
                    {
                      OFFSET 4.63474 -0.022105 -0.478947
                      CHANNELS 3 Zrotation Xrotation Yrotation
                      JOINT LeftHandRing2
                      {
                        OFFSET 3.44238 0 0
                        CHANNELS 3 Zrotation Xrotation Yrotation
                        JOINT LeftHandRing3
                        {
                          OFFSET 2.3881 0 0
                          CHANNELS 3 Zrotation Xrotation Yrotation
                          End Site
                          {
                            OFFSET 1.857 0 0
                          }
                        }
                      }
                    }
                  }
                  JOINT LeftInHandPinky
                  {
                    OFFSET 3.16105 0.469368 -1.20179
                    CHANNELS 3 Zrotation Xrotation Yrotation
                    JOINT LeftHandPinky1
                    {
                      OFFSET 4.14105 -0.022105 -1.09053
                      CHANNELS 3 Zrotation Xrotation Yrotation
                      JOINT LeftHandPinky2
                      {
                        OFFSET 2.75653 0 0
                        CHANNELS 3 Zrotation Xrotation Yrotation
                        JOINT LeftHandPinky3
                        {
                          OFFSET 1.74189 0 0
                          CHANNELS 3 Zrotation Xrotation Yrotation
                          End Site
                          {
                            OFFSET 1.645 0 0
                          }
                        }
                      }
                    }
                  }
                }
              }
            }
          }
        }
      }
    }
  }
}
MOTION
Frames:	4
Frame Time:	0.00833333
375.462 87.5517 260.952 31.5799 28.7738 -43.1872 -45.7125 -61.5174 -42.3828 4.86495 29.3513 -26.4946 6.54109 1.24691 20.7129 -6.19182 -73.3086 -28.7952 -4.27863 31.466 1.65374 -12.5646 -4.00648 13.3722 9.5828 6.11815 -1.44603 2.3797 1.58477 -0.107123 3.92488 2.6161 -0.0725989 -0.514754 -0.794752 0.016727 -0.516429 -0.798523 0.023383 -9.39794 -14.3981 0.587812 -8.25892 -13.3697 -2.32367 71.1709 14.5655 62.0333 7.61717 -25.0318 -5.32526 28.3734 -14.4596 -11.571 28.184 10.7294 19.1592 -6.45924e-15 0 -10 -5.79204e-15 -7.95139e-16 -10 -3.18055e-15 3.18055e-15 6.36111e-15 19.9818 0.871897 2.3964 24 -1.2921e-15 -9.54166e-15 20 -4.77083e-15 -3.18055e-15 -3.18055e-15 3.18055e-15 6.36111e-15 20 0 -9.54166e-15 24 -4.77083e-15 -0 20 4.77083e-15 -3.18055e-15 -3.18055e-15 3.18055e-15 6.36111e-15 19.9748 -1.02565 -2.81938 24 -2.38542e-15 9.54166e-15 20 1.59028e-15 3.18055e-15 -3.18055e-15 3.18055e-15 6.36111e-15 19.7815 -3.00948 -8.30515 24 5.56597e-15 -3.18055e-15 20 -4.77083e-15 -6.36111e-15 2.77171 -13.7807 -29.2932 -39.1323 37.5861 -68.6878 4.306 -75.7106 -0.457694 -4.65594 5.69745 -3.3019 -28.184 10.7294 -19.1592 1.12164e-15 -6.36111e-15 10 2.10798e-15 6.36111e-15 10 -7.95139e-16 3.18055e-15 -3.18055e-15 -19.9818 0.871897 -2.3964 -24 -3.18055e-15 1.27222e-14 -20 -6.36111e-15 6.36111e-15 -7.95139e-16 3.18055e-15 -3.18055e-15 -20 -6.36111e-15 7.95139e-15 -24 -6.36111e-15 1.59028e-14 -20 -7.95139e-15 3.18055e-15 -7.95139e-16 3.18055e-15 -3.18055e-15 -19.9748 -1.02565 2.81938 -24 -3.18055e-15 1.27222e-14 -20 1.59028e-15 2.22639e-14 -7.95139e-16 3.18055e-15 -3.18055e-15 -19.7815 -3.00948 8.30515 -24 -1.59028e-15 9.54166e-15 -20 -7.95139e-16 3.18055e-15 
375.457 87.5511 260.951 31.5686 28.7694 -43.1852 -45.696 -61.5179 -42.3611 4.86179 29.3578 -26.4873 6.5423 1.24352 20.7014 -6.14932 -73.3004 -28.753 -4.28135 31.4602 1.66143 -12.5709 -4.00114 13.3563 9.58164 6.12066 -1.43882 2.3791 1.58448 -0.105555 3.92363 2.61627 -0.0689971 -0.515203 -0.794881 0.0168494 -0.51688 -0.797834 0.0235033 -9.39653 -14.3875 0.588098 -8.23924 -13.355 -2.32307 71.1448 14.5664 62.0615 7.65696 -25.0022 -5.2764 28.3152 -14.5319 -11.6004 28.184 10.7294 19.1592 -1.54471e-15 3.97569e-16 -10 1.08781e-15 1.59028e-15 -10 -6.36111e-15 6.36111e-15 3.18055e-15 19.9818 0.871897 2.3964 24 -3.77691e-15 -9.54166e-15 20 1.59028e-15 9.54166e-15 -6.36111e-15 6.36111e-15 3.18055e-15 20 0 -3.18055e-15 24 -1.78906e-15 -1.27222e-14 20 6.36111e-15 -6.36111e-15 -6.36111e-15 6.36111e-15 3.18055e-15 19.9748 -1.02565 -2.81938 24 -6.36111e-15 6.36111e-15 20 3.18055e-15 3.18055e-15 -6.36111e-15 6.36111e-15 3.18055e-15 19.7815 -3.00948 -8.30515 24 7.95139e-16 -0 20 7.15625e-15 -0 2.74196 -13.7618 -29.2881 -39.0883 37.5876 -68.6998 4.27708 -75.6989 -0.474185 -4.664 5.69051 -3.29013 -28.184 10.7294 -19.1592 -2.10798e-15 -6.36111e-15 10 -9.68886e-15 0 10 7.95139e-16 0 -3.97569e-15 -19.9818 0.871897 -2.3964 -24 -3.18055e-15 6.36111e-15 -20 3.18055e-15 6.36111e-15 7.95139e-16 0 -3.97569e-15 -20 0 -1.59028e-15 -24 3.18055e-15 6.36111e-15 -20 7.95139e-15 3.18055e-15 7.95139e-16 0 -3.97569e-15 -19.9748 -1.02565 2.81938 -24 3.18055e-15 -3.18055e-15 -20 1.59028e-15 -0 7.95139e-16 0 -3.97569e-15 -19.7815 -3.00948 8.30515 -24 -3.18055e-15 6.36111e-15 -20 -5.56597e-15 -3.18055e-15 
375.454 87.5504 260.95 31.559 28.7612 -43.1814 -45.6662 -61.5191 -42.3214 4.86123 29.3591 -26.487 6.54265 1.24239 20.6923 -6.11073 -73.2896 -28.7147 -4.28703 31.4531 1.67481 -12.5765 -3.99353 13.3414 9.57909 6.12454 -1.43316 2.37851 1.58418 -0.103959 3.9224 2.61644 -0.0661349 -0.515653 -0.794675 0.0169725 -0.51733 -0.797239 0.0236241 -9.39323 -14.3734 0.589557 -8.21053 -13.3331 -2.32249 71.1285 14.5346 62.0544 7.68646 -24.9969 -5.25388 28.3084 -14.5192 -11.6225 28.184 10.7294 19.1592 -2.49232e-15 -3.97569e-16 -10 -2.14181e-15 1.59028e-15 -10 9.54166e-15 0 -3.18055e-15 19.9818 0.871897 2.3964 24 -2.98177e-16 6.36111e-15 20 1.59028e-15 -0 9.54166e-15 0 -3.18055e-15 20 -1.59028e-15 -3.18055e-15 24 -2.18663e-15 -0 20 3.18055e-15 -3.18055e-15 9.54166e-15 0 -3.18055e-15 19.9748 -1.02565 -2.81938 24 5.1684e-15 3.18055e-15 20 7.95139e-15 1.59028e-14 9.54166e-15 0 -3.18055e-15 19.7815 -3.00948 -8.30515 24 3.97569e-15 9.54166e-15 20 1.59028e-15 -3.18055e-15 2.69999 -13.7477 -29.2837 -39.0451 37.5985 -68.7197 4.324 -75.686 -0.41704 -4.66744 5.68713 -3.27792 -28.184 10.7294 -19.1592 5.60818e-16 -3.18055e-15 10 -6.45924e-15 0 10 1.59028e-15 -3.18055e-15 -1.19271e-15 -19.9818 0.871897 -2.3964 -24 3.18055e-15 6.36111e-15 -20 -6.36111e-15 -1.27222e-14 1.59028e-15 -3.18055e-15 -1.19271e-15 -20 0 -3.18055e-15 -24 -3.18055e-15 -6.36111e-15 -20 0 -3.18055e-15 1.59028e-15 -3.18055e-15 -1.19271e-15 -19.9748 -1.02565 2.81938 -24 3.18055e-15 -0 -20 3.18055e-15 3.18055e-15 1.59028e-15 -3.18055e-15 -1.19271e-15 -19.7815 -3.00948 8.30515 -24 3.18055e-15 -6.36111e-15 -20 -3.18055e-15 -6.36111e-15 
375.452 87.5497 260.948 31.5413 28.7506 -43.1765 -45.6363 -61.5094 -42.2839 4.87213 29.3677 -26.4888 6.54506 1.2288 20.6777 -6.0833 -73.276 -28.6845 -4.2889 31.4528 1.68117 -12.5802 -3.98793 13.3305 9.57275 6.13286 -1.42589 2.37794 1.58389 -0.102247 3.92113 2.61661 -0.0632175 -0.516104 -0.793815 0.0170962 -0.517782 -0.796647 0.0237457 -9.38736 -14.3604 0.584341 -8.16618 -13.3172 -2.3221 71.0934 14.5315 62.0576 7.74282 -24.9765 -5.1898 28.2653 -14.5592 -11.6441 28.184 10.7294 19.1592 -3.82672e-15 1.19271e-15 -10 -3.36982e-15 -7.95139e-16 -10 -9.54166e-15 0 3.18055e-15 19.9818 0.871897 2.3964 24 -1.09332e-15 -3.18055e-15 20 -3.18055e-15 -3.18055e-15 -9.54166e-15 0 3.18055e-15 20 1.59028e-15 -0 24 3.37934e-15 -9.54166e-15 20 3.18055e-15 -0 -9.54166e-15 0 3.18055e-15 19.9748 -1.02565 -2.81938 24 -1.19271e-15 9.54166e-15 20 -1.59028e-15 -0 -9.54166e-15 0 3.18055e-15 19.7815 -3.00948 -8.30515 24 4.77083e-15 -0 20 0 3.18055e-15 2.67975 -13.7376 -29.2803 -39.0272 37.5991 -68.718 4.29857 -75.6577 -0.424601 -4.66537 5.68365 -3.26421 -28.184 10.7294 -19.1592 -4.35126e-15 6.36111e-15 10 -1.02497e-14 3.18055e-15 10 -1.59028e-15 -6.36111e-15 -0 -19.9818 0.871897 -2.3964 -24 -9.54166e-15 9.54166e-15 -20 -4.77083e-15 3.18055e-15 -1.59028e-15 -6.36111e-15 -0 -20 3.18055e-15 1.59028e-15 -24 -3.18055e-15 -6.36111e-15 -20 1.59028e-15 3.18055e-15 -1.59028e-15 -6.36111e-15 -0 -19.9748 -1.02565 2.81938 -24 -6.36111e-15 3.18055e-15 -20 0 9.54166e-15 -1.59028e-15 -6.36111e-15 -0 -19.7815 -3.00948 8.30515 -24 0 -0 -20 -6.36111e-15 3.18055e-15 
